<?xml version="1.0" encoding="utf-8" standalone="no"?>
<!DOCTYPE svg PUBLIC "-//W3C//DTD SVG 1.1//EN"
  "http://www.w3.org/Graphics/SVG/1.1/DTD/svg11.dtd">
<svg xmlns:xlink="http://www.w3.org/1999/xlink" width="710.8325pt" height="351.034375pt" viewBox="0 0 710.8325 351.034375" xmlns="http://www.w3.org/2000/svg" version="1.1">
 <metadata>
  <rdf:RDF xmlns:dc="http://purl.org/dc/elements/1.1/" xmlns:cc="http://creativecommons.org/ns#" xmlns:rdf="http://www.w3.org/1999/02/22-rdf-syntax-ns#">
   <cc:Work>
    <dc:type rdf:resource="http://purl.org/dc/dcmitype/StillImage"/>
    <dc:date>2023-11-24T17:53:58.464541</dc:date>
    <dc:format>image/svg+xml</dc:format>
    <dc:creator>
     <cc:Agent>
      <dc:title>Matplotlib v3.6.2, https://matplotlib.org/</dc:title>
     </cc:Agent>
    </dc:creator>
   </cc:Work>
  </rdf:RDF>
 </metadata>
 <defs>
  <style type="text/css">*{stroke-linejoin: round; stroke-linecap: butt}</style>
 </defs>
 <g id="figure_1">
  <g id="patch_1">
   <path d="M 0 351.034375 
L 710.8325 351.034375 
L 710.8325 0 
L 0 0 
z
" style="fill: #ffffff"/>
  </g>
  <g id="axes_1">
   <g id="patch_2">
    <path d="M 105.6025 313.478125 
L 703.6325 313.478125 
L 703.6325 22.318125 
L 105.6025 22.318125 
z
" style="fill: #ffffff"/>
   </g>
   <g id="patch_3">
    <path d="M 105.6025 300.24358 
L 675.154881 300.24358 
L 675.154881 292.036109 
L 105.6025 292.036109 
z
" clip-path="url(#p589c0ce26c)" style="fill: #a52a2a"/>
   </g>
   <g id="patch_4">
    <path d="M 105.6025 289.984242 
L 641.880602 289.984242 
L 641.880602 281.776772 
L 105.6025 281.776772 
z
" clip-path="url(#p589c0ce26c)" style="fill: #ffa07a"/>
   </g>
   <g id="patch_5">
    <path d="M 105.6025 279.724904 
L 638.509472 279.724904 
L 638.509472 271.517434 
L 105.6025 271.517434 
z
" clip-path="url(#p589c0ce26c)" style="fill: #a52a2a"/>
   </g>
   <g id="patch_6">
    <path d="M 105.6025 269.465567 
L 590.663504 269.465567 
L 590.663504 261.258097 
L 105.6025 261.258097 
z
" clip-path="url(#p589c0ce26c)" style="fill: #ffa07a"/>
   </g>
   <g id="patch_7">
    <path d="M 105.6025 259.206229 
L 550.602523 259.206229 
L 550.602523 250.998759 
L 105.6025 250.998759 
z
" clip-path="url(#p589c0ce26c)" style="fill: #a52a2a"/>
   </g>
   <g id="patch_8">
    <path d="M 105.6025 248.946892 
L 300.342707 248.946892 
L 300.342707 240.739422 
L 105.6025 240.739422 
z
" clip-path="url(#p589c0ce26c)" style="fill: #ffa07a"/>
   </g>
   <g id="patch_9">
    <path d="M 105.6025 238.687554 
L 269.123159 238.687554 
L 269.123159 230.480084 
L 105.6025 230.480084 
z
" clip-path="url(#p589c0ce26c)" style="fill: #a52a2a"/>
   </g>
   <g id="patch_10">
    <path d="M 105.6025 228.428217 
L 198.992246 228.428217 
L 198.992246 220.220747 
L 105.6025 220.220747 
z
" clip-path="url(#p589c0ce26c)" style="fill: #ffa07a"/>
   </g>
   <g id="patch_11">
    <path d="M 105.6025 218.168879 
L 193.759547 218.168879 
L 193.759547 209.961409 
L 105.6025 209.961409 
z
" clip-path="url(#p589c0ce26c)" style="fill: #a52a2a"/>
   </g>
   <g id="patch_12">
    <path d="M 105.6025 207.909541 
L 191.752915 207.909541 
L 191.752915 199.702071 
L 105.6025 199.702071 
z
" clip-path="url(#p589c0ce26c)" style="fill: #ffa07a"/>
   </g>
   <g id="patch_13">
    <path d="M 105.6025 197.650204 
L 170.563834 197.650204 
L 170.563834 189.442734 
L 105.6025 189.442734 
z
" clip-path="url(#p589c0ce26c)" style="fill: #a52a2a"/>
   </g>
   <g id="patch_14">
    <path d="M 105.6025 187.390866 
L 139.076884 187.390866 
L 139.076884 179.183396 
L 105.6025 179.183396 
z
" clip-path="url(#p589c0ce26c)" style="fill: #ffa07a"/>
   </g>
   <g id="patch_15">
    <path d="M 105.6025 177.131529 
L 135.505187 177.131529 
L 135.505187 168.924059 
L 105.6025 168.924059 
z
" clip-path="url(#p589c0ce26c)" style="fill: #a52a2a"/>
   </g>
   <g id="patch_16">
    <path d="M 105.6025 166.872191 
L 134.019127 166.872191 
L 134.019127 158.664721 
L 105.6025 158.664721 
z
" clip-path="url(#p589c0ce26c)" style="fill: #ffa07a"/>
   </g>
   <g id="patch_17">
    <path d="M 105.6025 156.612854 
L 133.670717 156.612854 
L 133.670717 148.405384 
L 105.6025 148.405384 
z
" clip-path="url(#p589c0ce26c)" style="fill: #a52a2a"/>
   </g>
   <g id="patch_18">
    <path d="M 105.6025 146.353516 
L 132.206636 146.353516 
L 132.206636 138.146046 
L 105.6025 138.146046 
z
" clip-path="url(#p589c0ce26c)" style="fill: #ffa07a"/>
   </g>
   <g id="patch_19">
    <path d="M 105.6025 136.094179 
L 129.267748 136.094179 
L 129.267748 127.886709 
L 105.6025 127.886709 
z
" clip-path="url(#p589c0ce26c)" style="fill: #a52a2a"/>
   </g>
   <g id="patch_20">
    <path d="M 105.6025 125.834841 
L 128.875638 125.834841 
L 128.875638 117.627371 
L 105.6025 117.627371 
z
" clip-path="url(#p589c0ce26c)" style="fill: #ffa07a"/>
   </g>
   <g id="patch_21">
    <path d="M 105.6025 115.575503 
L 128.327644 115.575503 
L 128.327644 107.368033 
L 105.6025 107.368033 
z
" clip-path="url(#p589c0ce26c)" style="fill: #a52a2a"/>
   </g>
   <g id="patch_22">
    <path d="M 105.6025 105.316166 
L 128.025893 105.316166 
L 128.025893 97.108696 
L 105.6025 97.108696 
z
" clip-path="url(#p589c0ce26c)" style="fill: #ffa07a"/>
   </g>
   <g id="patch_23">
    <path d="M 105.6025 95.056828 
L 126.08628 95.056828 
L 126.08628 86.849358 
L 105.6025 86.849358 
z
" clip-path="url(#p589c0ce26c)" style="fill: #a52a2a"/>
   </g>
   <g id="patch_24">
    <path d="M 105.6025 84.797491 
L 125.897059 84.797491 
L 125.897059 76.590021 
L 105.6025 76.590021 
z
" clip-path="url(#p589c0ce26c)" style="fill: #ffa07a"/>
   </g>
   <g id="patch_25">
    <path d="M 105.6025 74.538153 
L 123.921372 74.538153 
L 123.921372 66.330683 
L 105.6025 66.330683 
z
" clip-path="url(#p589c0ce26c)" style="fill: #a52a2a"/>
   </g>
   <g id="patch_26">
    <path d="M 105.6025 64.278816 
L 123.724551 64.278816 
L 123.724551 56.071346 
L 105.6025 56.071346 
z
" clip-path="url(#p589c0ce26c)" style="fill: #ffa07a"/>
   </g>
   <g id="patch_27">
    <path d="M 105.6025 54.019478 
L 123.487878 54.019478 
L 123.487878 45.812008 
L 105.6025 45.812008 
z
" clip-path="url(#p589c0ce26c)" style="fill: #a52a2a"/>
   </g>
   <g id="patch_28">
    <path d="M 105.6025 43.760141 
L 120.66162 43.760141 
L 120.66162 35.55267 
L 105.6025 35.55267 
z
" clip-path="url(#p589c0ce26c)" style="fill: #ffa07a"/>
   </g>
   <g id="matplotlib.axis_1">
    <g id="xtick_1">
     <g id="line2d_1">
      <defs>
       <path id="m830e68b56f" d="M 0 0 
L 0 3.5 
" style="stroke: #000000; stroke-width: 0.8"/>
      </defs>
      <g>
       <use xlink:href="#m830e68b56f" x="105.6025" y="313.478125" style="stroke: #000000; stroke-width: 0.8"/>
      </g>
     </g>
     <g id="text_1">
      <!-- 0.00 -->
      <g transform="translate(96.69625 326.556875) scale(0.08 -0.08)">
       <defs>
        <path id="DejaVuSans-30" d="M 2034 4250 
Q 1547 4250 1301 3770 
Q 1056 3291 1056 2328 
Q 1056 1369 1301 889 
Q 1547 409 2034 409 
Q 2525 409 2770 889 
Q 3016 1369 3016 2328 
Q 3016 3291 2770 3770 
Q 2525 4250 2034 4250 
z
M 2034 4750 
Q 2819 4750 3233 4129 
Q 3647 3509 3647 2328 
Q 3647 1150 3233 529 
Q 2819 -91 2034 -91 
Q 1250 -91 836 529 
Q 422 1150 422 2328 
Q 422 3509 836 4129 
Q 1250 4750 2034 4750 
z
" transform="scale(0.015625)"/>
        <path id="DejaVuSans-2e" d="M 684 794 
L 1344 794 
L 1344 0 
L 684 0 
L 684 794 
z
" transform="scale(0.015625)"/>
       </defs>
       <use xlink:href="#DejaVuSans-30"/>
       <use xlink:href="#DejaVuSans-2e" x="63.623047"/>
       <use xlink:href="#DejaVuSans-30" x="95.410156"/>
       <use xlink:href="#DejaVuSans-30" x="159.033203"/>
      </g>
     </g>
    </g>
    <g id="xtick_2">
     <g id="line2d_2">
      <g>
       <use xlink:href="#m830e68b56f" x="178.079292" y="313.478125" style="stroke: #000000; stroke-width: 0.8"/>
      </g>
     </g>
     <g id="text_2">
      <!-- 0.02 -->
      <g transform="translate(169.173042 326.556875) scale(0.08 -0.08)">
       <defs>
        <path id="DejaVuSans-32" d="M 1228 531 
L 3431 531 
L 3431 0 
L 469 0 
L 469 531 
Q 828 903 1448 1529 
Q 2069 2156 2228 2338 
Q 2531 2678 2651 2914 
Q 2772 3150 2772 3378 
Q 2772 3750 2511 3984 
Q 2250 4219 1831 4219 
Q 1534 4219 1204 4116 
Q 875 4013 500 3803 
L 500 4441 
Q 881 4594 1212 4672 
Q 1544 4750 1819 4750 
Q 2544 4750 2975 4387 
Q 3406 4025 3406 3419 
Q 3406 3131 3298 2873 
Q 3191 2616 2906 2266 
Q 2828 2175 2409 1742 
Q 1991 1309 1228 531 
z
" transform="scale(0.015625)"/>
       </defs>
       <use xlink:href="#DejaVuSans-30"/>
       <use xlink:href="#DejaVuSans-2e" x="63.623047"/>
       <use xlink:href="#DejaVuSans-30" x="95.410156"/>
       <use xlink:href="#DejaVuSans-32" x="159.033203"/>
      </g>
     </g>
    </g>
    <g id="xtick_3">
     <g id="line2d_3">
      <g>
       <use xlink:href="#m830e68b56f" x="250.556084" y="313.478125" style="stroke: #000000; stroke-width: 0.8"/>
      </g>
     </g>
     <g id="text_3">
      <!-- 0.04 -->
      <g transform="translate(241.649834 326.556875) scale(0.08 -0.08)">
       <defs>
        <path id="DejaVuSans-34" d="M 2419 4116 
L 825 1625 
L 2419 1625 
L 2419 4116 
z
M 2253 4666 
L 3047 4666 
L 3047 1625 
L 3713 1625 
L 3713 1100 
L 3047 1100 
L 3047 0 
L 2419 0 
L 2419 1100 
L 313 1100 
L 313 1709 
L 2253 4666 
z
" transform="scale(0.015625)"/>
       </defs>
       <use xlink:href="#DejaVuSans-30"/>
       <use xlink:href="#DejaVuSans-2e" x="63.623047"/>
       <use xlink:href="#DejaVuSans-30" x="95.410156"/>
       <use xlink:href="#DejaVuSans-34" x="159.033203"/>
      </g>
     </g>
    </g>
    <g id="xtick_4">
     <g id="line2d_4">
      <g>
       <use xlink:href="#m830e68b56f" x="323.032876" y="313.478125" style="stroke: #000000; stroke-width: 0.8"/>
      </g>
     </g>
     <g id="text_4">
      <!-- 0.06 -->
      <g transform="translate(314.126626 326.556875) scale(0.08 -0.08)">
       <defs>
        <path id="DejaVuSans-36" d="M 2113 2584 
Q 1688 2584 1439 2293 
Q 1191 2003 1191 1497 
Q 1191 994 1439 701 
Q 1688 409 2113 409 
Q 2538 409 2786 701 
Q 3034 994 3034 1497 
Q 3034 2003 2786 2293 
Q 2538 2584 2113 2584 
z
M 3366 4563 
L 3366 3988 
Q 3128 4100 2886 4159 
Q 2644 4219 2406 4219 
Q 1781 4219 1451 3797 
Q 1122 3375 1075 2522 
Q 1259 2794 1537 2939 
Q 1816 3084 2150 3084 
Q 2853 3084 3261 2657 
Q 3669 2231 3669 1497 
Q 3669 778 3244 343 
Q 2819 -91 2113 -91 
Q 1303 -91 875 529 
Q 447 1150 447 2328 
Q 447 3434 972 4092 
Q 1497 4750 2381 4750 
Q 2619 4750 2861 4703 
Q 3103 4656 3366 4563 
z
" transform="scale(0.015625)"/>
       </defs>
       <use xlink:href="#DejaVuSans-30"/>
       <use xlink:href="#DejaVuSans-2e" x="63.623047"/>
       <use xlink:href="#DejaVuSans-30" x="95.410156"/>
       <use xlink:href="#DejaVuSans-36" x="159.033203"/>
      </g>
     </g>
    </g>
    <g id="xtick_5">
     <g id="line2d_5">
      <g>
       <use xlink:href="#m830e68b56f" x="395.509668" y="313.478125" style="stroke: #000000; stroke-width: 0.8"/>
      </g>
     </g>
     <g id="text_5">
      <!-- 0.08 -->
      <g transform="translate(386.603418 326.556875) scale(0.08 -0.08)">
       <defs>
        <path id="DejaVuSans-38" d="M 2034 2216 
Q 1584 2216 1326 1975 
Q 1069 1734 1069 1313 
Q 1069 891 1326 650 
Q 1584 409 2034 409 
Q 2484 409 2743 651 
Q 3003 894 3003 1313 
Q 3003 1734 2745 1975 
Q 2488 2216 2034 2216 
z
M 1403 2484 
Q 997 2584 770 2862 
Q 544 3141 544 3541 
Q 544 4100 942 4425 
Q 1341 4750 2034 4750 
Q 2731 4750 3128 4425 
Q 3525 4100 3525 3541 
Q 3525 3141 3298 2862 
Q 3072 2584 2669 2484 
Q 3125 2378 3379 2068 
Q 3634 1759 3634 1313 
Q 3634 634 3220 271 
Q 2806 -91 2034 -91 
Q 1263 -91 848 271 
Q 434 634 434 1313 
Q 434 1759 690 2068 
Q 947 2378 1403 2484 
z
M 1172 3481 
Q 1172 3119 1398 2916 
Q 1625 2713 2034 2713 
Q 2441 2713 2670 2916 
Q 2900 3119 2900 3481 
Q 2900 3844 2670 4047 
Q 2441 4250 2034 4250 
Q 1625 4250 1398 4047 
Q 1172 3844 1172 3481 
z
" transform="scale(0.015625)"/>
       </defs>
       <use xlink:href="#DejaVuSans-30"/>
       <use xlink:href="#DejaVuSans-2e" x="63.623047"/>
       <use xlink:href="#DejaVuSans-30" x="95.410156"/>
       <use xlink:href="#DejaVuSans-38" x="159.033203"/>
      </g>
     </g>
    </g>
    <g id="xtick_6">
     <g id="line2d_6">
      <g>
       <use xlink:href="#m830e68b56f" x="467.98646" y="313.478125" style="stroke: #000000; stroke-width: 0.8"/>
      </g>
     </g>
     <g id="text_6">
      <!-- 0.10 -->
      <g transform="translate(459.08021 326.556875) scale(0.08 -0.08)">
       <defs>
        <path id="DejaVuSans-31" d="M 794 531 
L 1825 531 
L 1825 4091 
L 703 3866 
L 703 4441 
L 1819 4666 
L 2450 4666 
L 2450 531 
L 3481 531 
L 3481 0 
L 794 0 
L 794 531 
z
" transform="scale(0.015625)"/>
       </defs>
       <use xlink:href="#DejaVuSans-30"/>
       <use xlink:href="#DejaVuSans-2e" x="63.623047"/>
       <use xlink:href="#DejaVuSans-31" x="95.410156"/>
       <use xlink:href="#DejaVuSans-30" x="159.033203"/>
      </g>
     </g>
    </g>
    <g id="xtick_7">
     <g id="line2d_7">
      <g>
       <use xlink:href="#m830e68b56f" x="540.463251" y="313.478125" style="stroke: #000000; stroke-width: 0.8"/>
      </g>
     </g>
     <g id="text_7">
      <!-- 0.12 -->
      <g transform="translate(531.557001 326.556875) scale(0.08 -0.08)">
       <use xlink:href="#DejaVuSans-30"/>
       <use xlink:href="#DejaVuSans-2e" x="63.623047"/>
       <use xlink:href="#DejaVuSans-31" x="95.410156"/>
       <use xlink:href="#DejaVuSans-32" x="159.033203"/>
      </g>
     </g>
    </g>
    <g id="xtick_8">
     <g id="line2d_8">
      <g>
       <use xlink:href="#m830e68b56f" x="612.940043" y="313.478125" style="stroke: #000000; stroke-width: 0.8"/>
      </g>
     </g>
     <g id="text_8">
      <!-- 0.14 -->
      <g transform="translate(604.033793 326.556875) scale(0.08 -0.08)">
       <use xlink:href="#DejaVuSans-30"/>
       <use xlink:href="#DejaVuSans-2e" x="63.623047"/>
       <use xlink:href="#DejaVuSans-31" x="95.410156"/>
       <use xlink:href="#DejaVuSans-34" x="159.033203"/>
      </g>
     </g>
    </g>
    <g id="xtick_9">
     <g id="line2d_9">
      <g>
       <use xlink:href="#m830e68b56f" x="685.416835" y="313.478125" style="stroke: #000000; stroke-width: 0.8"/>
      </g>
     </g>
     <g id="text_9">
      <!-- 0.16 -->
      <g transform="translate(676.510585 326.556875) scale(0.08 -0.08)">
       <use xlink:href="#DejaVuSans-30"/>
       <use xlink:href="#DejaVuSans-2e" x="63.623047"/>
       <use xlink:href="#DejaVuSans-31" x="95.410156"/>
       <use xlink:href="#DejaVuSans-36" x="159.033203"/>
      </g>
     </g>
    </g>
    <g id="text_10">
     <!-- Importance -->
     <g transform="translate(370.23375 341.33875) scale(0.12 -0.12)">
      <defs>
       <path id="DejaVuSans-49" d="M 628 4666 
L 1259 4666 
L 1259 0 
L 628 0 
L 628 4666 
z
" transform="scale(0.015625)"/>
       <path id="DejaVuSans-6d" d="M 3328 2828 
Q 3544 3216 3844 3400 
Q 4144 3584 4550 3584 
Q 5097 3584 5394 3201 
Q 5691 2819 5691 2113 
L 5691 0 
L 5113 0 
L 5113 2094 
Q 5113 2597 4934 2840 
Q 4756 3084 4391 3084 
Q 3944 3084 3684 2787 
Q 3425 2491 3425 1978 
L 3425 0 
L 2847 0 
L 2847 2094 
Q 2847 2600 2669 2842 
Q 2491 3084 2119 3084 
Q 1678 3084 1418 2786 
Q 1159 2488 1159 1978 
L 1159 0 
L 581 0 
L 581 3500 
L 1159 3500 
L 1159 2956 
Q 1356 3278 1631 3431 
Q 1906 3584 2284 3584 
Q 2666 3584 2933 3390 
Q 3200 3197 3328 2828 
z
" transform="scale(0.015625)"/>
       <path id="DejaVuSans-70" d="M 1159 525 
L 1159 -1331 
L 581 -1331 
L 581 3500 
L 1159 3500 
L 1159 2969 
Q 1341 3281 1617 3432 
Q 1894 3584 2278 3584 
Q 2916 3584 3314 3078 
Q 3713 2572 3713 1747 
Q 3713 922 3314 415 
Q 2916 -91 2278 -91 
Q 1894 -91 1617 61 
Q 1341 213 1159 525 
z
M 3116 1747 
Q 3116 2381 2855 2742 
Q 2594 3103 2138 3103 
Q 1681 3103 1420 2742 
Q 1159 2381 1159 1747 
Q 1159 1113 1420 752 
Q 1681 391 2138 391 
Q 2594 391 2855 752 
Q 3116 1113 3116 1747 
z
" transform="scale(0.015625)"/>
       <path id="DejaVuSans-6f" d="M 1959 3097 
Q 1497 3097 1228 2736 
Q 959 2375 959 1747 
Q 959 1119 1226 758 
Q 1494 397 1959 397 
Q 2419 397 2687 759 
Q 2956 1122 2956 1747 
Q 2956 2369 2687 2733 
Q 2419 3097 1959 3097 
z
M 1959 3584 
Q 2709 3584 3137 3096 
Q 3566 2609 3566 1747 
Q 3566 888 3137 398 
Q 2709 -91 1959 -91 
Q 1206 -91 779 398 
Q 353 888 353 1747 
Q 353 2609 779 3096 
Q 1206 3584 1959 3584 
z
" transform="scale(0.015625)"/>
       <path id="DejaVuSans-72" d="M 2631 2963 
Q 2534 3019 2420 3045 
Q 2306 3072 2169 3072 
Q 1681 3072 1420 2755 
Q 1159 2438 1159 1844 
L 1159 0 
L 581 0 
L 581 3500 
L 1159 3500 
L 1159 2956 
Q 1341 3275 1631 3429 
Q 1922 3584 2338 3584 
Q 2397 3584 2469 3576 
Q 2541 3569 2628 3553 
L 2631 2963 
z
" transform="scale(0.015625)"/>
       <path id="DejaVuSans-74" d="M 1172 4494 
L 1172 3500 
L 2356 3500 
L 2356 3053 
L 1172 3053 
L 1172 1153 
Q 1172 725 1289 603 
Q 1406 481 1766 481 
L 2356 481 
L 2356 0 
L 1766 0 
Q 1100 0 847 248 
Q 594 497 594 1153 
L 594 3053 
L 172 3053 
L 172 3500 
L 594 3500 
L 594 4494 
L 1172 4494 
z
" transform="scale(0.015625)"/>
       <path id="DejaVuSans-61" d="M 2194 1759 
Q 1497 1759 1228 1600 
Q 959 1441 959 1056 
Q 959 750 1161 570 
Q 1363 391 1709 391 
Q 2188 391 2477 730 
Q 2766 1069 2766 1631 
L 2766 1759 
L 2194 1759 
z
M 3341 1997 
L 3341 0 
L 2766 0 
L 2766 531 
Q 2569 213 2275 61 
Q 1981 -91 1556 -91 
Q 1019 -91 701 211 
Q 384 513 384 1019 
Q 384 1609 779 1909 
Q 1175 2209 1959 2209 
L 2766 2209 
L 2766 2266 
Q 2766 2663 2505 2880 
Q 2244 3097 1772 3097 
Q 1472 3097 1187 3025 
Q 903 2953 641 2809 
L 641 3341 
Q 956 3463 1253 3523 
Q 1550 3584 1831 3584 
Q 2591 3584 2966 3190 
Q 3341 2797 3341 1997 
z
" transform="scale(0.015625)"/>
       <path id="DejaVuSans-6e" d="M 3513 2113 
L 3513 0 
L 2938 0 
L 2938 2094 
Q 2938 2591 2744 2837 
Q 2550 3084 2163 3084 
Q 1697 3084 1428 2787 
Q 1159 2491 1159 1978 
L 1159 0 
L 581 0 
L 581 3500 
L 1159 3500 
L 1159 2956 
Q 1366 3272 1645 3428 
Q 1925 3584 2291 3584 
Q 2894 3584 3203 3211 
Q 3513 2838 3513 2113 
z
" transform="scale(0.015625)"/>
       <path id="DejaVuSans-63" d="M 3122 3366 
L 3122 2828 
Q 2878 2963 2633 3030 
Q 2388 3097 2138 3097 
Q 1578 3097 1268 2742 
Q 959 2388 959 1747 
Q 959 1106 1268 751 
Q 1578 397 2138 397 
Q 2388 397 2633 464 
Q 2878 531 3122 666 
L 3122 134 
Q 2881 22 2623 -34 
Q 2366 -91 2075 -91 
Q 1284 -91 818 406 
Q 353 903 353 1747 
Q 353 2603 823 3093 
Q 1294 3584 2113 3584 
Q 2378 3584 2631 3529 
Q 2884 3475 3122 3366 
z
" transform="scale(0.015625)"/>
       <path id="DejaVuSans-65" d="M 3597 1894 
L 3597 1613 
L 953 1613 
Q 991 1019 1311 708 
Q 1631 397 2203 397 
Q 2534 397 2845 478 
Q 3156 559 3463 722 
L 3463 178 
Q 3153 47 2828 -22 
Q 2503 -91 2169 -91 
Q 1331 -91 842 396 
Q 353 884 353 1716 
Q 353 2575 817 3079 
Q 1281 3584 2069 3584 
Q 2775 3584 3186 3129 
Q 3597 2675 3597 1894 
z
M 3022 2063 
Q 3016 2534 2758 2815 
Q 2500 3097 2075 3097 
Q 1594 3097 1305 2825 
Q 1016 2553 972 2059 
L 3022 2063 
z
" transform="scale(0.015625)"/>
      </defs>
      <use xlink:href="#DejaVuSans-49"/>
      <use xlink:href="#DejaVuSans-6d" x="29.492188"/>
      <use xlink:href="#DejaVuSans-70" x="126.904297"/>
      <use xlink:href="#DejaVuSans-6f" x="190.380859"/>
      <use xlink:href="#DejaVuSans-72" x="251.5625"/>
      <use xlink:href="#DejaVuSans-74" x="292.675781"/>
      <use xlink:href="#DejaVuSans-61" x="331.884766"/>
      <use xlink:href="#DejaVuSans-6e" x="393.164062"/>
      <use xlink:href="#DejaVuSans-63" x="456.542969"/>
      <use xlink:href="#DejaVuSans-65" x="511.523438"/>
     </g>
    </g>
   </g>
   <g id="matplotlib.axis_2">
    <g id="ytick_1">
     <g id="line2d_10">
      <defs>
       <path id="m49bcdc3dd0" d="M 0 0 
L -3.5 0 
" style="stroke: #000000; stroke-width: 0.8"/>
      </defs>
      <g>
       <use xlink:href="#m49bcdc3dd0" x="105.6025" y="296.139845" style="stroke: #000000; stroke-width: 0.8"/>
      </g>
     </g>
     <g id="text_11">
      <!-- hour_4 -->
      <g transform="translate(71.18875 299.17922) scale(0.08 -0.08)">
       <defs>
        <path id="DejaVuSans-68" d="M 3513 2113 
L 3513 0 
L 2938 0 
L 2938 2094 
Q 2938 2591 2744 2837 
Q 2550 3084 2163 3084 
Q 1697 3084 1428 2787 
Q 1159 2491 1159 1978 
L 1159 0 
L 581 0 
L 581 4863 
L 1159 4863 
L 1159 2956 
Q 1366 3272 1645 3428 
Q 1925 3584 2291 3584 
Q 2894 3584 3203 3211 
Q 3513 2838 3513 2113 
z
" transform="scale(0.015625)"/>
        <path id="DejaVuSans-75" d="M 544 1381 
L 544 3500 
L 1119 3500 
L 1119 1403 
Q 1119 906 1312 657 
Q 1506 409 1894 409 
Q 2359 409 2629 706 
Q 2900 1003 2900 1516 
L 2900 3500 
L 3475 3500 
L 3475 0 
L 2900 0 
L 2900 538 
Q 2691 219 2414 64 
Q 2138 -91 1772 -91 
Q 1169 -91 856 284 
Q 544 659 544 1381 
z
M 1991 3584 
L 1991 3584 
z
" transform="scale(0.015625)"/>
        <path id="DejaVuSans-5f" d="M 3263 -1063 
L 3263 -1509 
L -63 -1509 
L -63 -1063 
L 3263 -1063 
z
" transform="scale(0.015625)"/>
       </defs>
       <use xlink:href="#DejaVuSans-68"/>
       <use xlink:href="#DejaVuSans-6f" x="63.378906"/>
       <use xlink:href="#DejaVuSans-75" x="124.560547"/>
       <use xlink:href="#DejaVuSans-72" x="187.939453"/>
       <use xlink:href="#DejaVuSans-5f" x="229.052734"/>
       <use xlink:href="#DejaVuSans-34" x="279.052734"/>
      </g>
     </g>
    </g>
    <g id="ytick_2">
     <g id="line2d_11">
      <g>
       <use xlink:href="#m49bcdc3dd0" x="105.6025" y="285.880507" style="stroke: #000000; stroke-width: 0.8"/>
      </g>
     </g>
     <g id="text_12">
      <!-- hour_3 -->
      <g transform="translate(71.18875 288.919882) scale(0.08 -0.08)">
       <defs>
        <path id="DejaVuSans-33" d="M 2597 2516 
Q 3050 2419 3304 2112 
Q 3559 1806 3559 1356 
Q 3559 666 3084 287 
Q 2609 -91 1734 -91 
Q 1441 -91 1130 -33 
Q 819 25 488 141 
L 488 750 
Q 750 597 1062 519 
Q 1375 441 1716 441 
Q 2309 441 2620 675 
Q 2931 909 2931 1356 
Q 2931 1769 2642 2001 
Q 2353 2234 1838 2234 
L 1294 2234 
L 1294 2753 
L 1863 2753 
Q 2328 2753 2575 2939 
Q 2822 3125 2822 3475 
Q 2822 3834 2567 4026 
Q 2313 4219 1838 4219 
Q 1578 4219 1281 4162 
Q 984 4106 628 3988 
L 628 4550 
Q 988 4650 1302 4700 
Q 1616 4750 1894 4750 
Q 2613 4750 3031 4423 
Q 3450 4097 3450 3541 
Q 3450 3153 3228 2886 
Q 3006 2619 2597 2516 
z
" transform="scale(0.015625)"/>
       </defs>
       <use xlink:href="#DejaVuSans-68"/>
       <use xlink:href="#DejaVuSans-6f" x="63.378906"/>
       <use xlink:href="#DejaVuSans-75" x="124.560547"/>
       <use xlink:href="#DejaVuSans-72" x="187.939453"/>
       <use xlink:href="#DejaVuSans-5f" x="229.052734"/>
       <use xlink:href="#DejaVuSans-33" x="279.052734"/>
      </g>
     </g>
    </g>
    <g id="ytick_3">
     <g id="line2d_12">
      <g>
       <use xlink:href="#m49bcdc3dd0" x="105.6025" y="275.621169" style="stroke: #000000; stroke-width: 0.8"/>
      </g>
     </g>
     <g id="text_13">
      <!-- hour_1 -->
      <g transform="translate(71.18875 278.660544) scale(0.08 -0.08)">
       <use xlink:href="#DejaVuSans-68"/>
       <use xlink:href="#DejaVuSans-6f" x="63.378906"/>
       <use xlink:href="#DejaVuSans-75" x="124.560547"/>
       <use xlink:href="#DejaVuSans-72" x="187.939453"/>
       <use xlink:href="#DejaVuSans-5f" x="229.052734"/>
       <use xlink:href="#DejaVuSans-31" x="279.052734"/>
      </g>
     </g>
    </g>
    <g id="ytick_4">
     <g id="line2d_13">
      <g>
       <use xlink:href="#m49bcdc3dd0" x="105.6025" y="265.361832" style="stroke: #000000; stroke-width: 0.8"/>
      </g>
     </g>
     <g id="text_14">
      <!-- hour_0 -->
      <g transform="translate(71.18875 268.401207) scale(0.08 -0.08)">
       <use xlink:href="#DejaVuSans-68"/>
       <use xlink:href="#DejaVuSans-6f" x="63.378906"/>
       <use xlink:href="#DejaVuSans-75" x="124.560547"/>
       <use xlink:href="#DejaVuSans-72" x="187.939453"/>
       <use xlink:href="#DejaVuSans-5f" x="229.052734"/>
       <use xlink:href="#DejaVuSans-30" x="279.052734"/>
      </g>
     </g>
    </g>
    <g id="ytick_5">
     <g id="line2d_14">
      <g>
       <use xlink:href="#m49bcdc3dd0" x="105.6025" y="255.102494" style="stroke: #000000; stroke-width: 0.8"/>
      </g>
     </g>
     <g id="text_15">
      <!-- hour_2 -->
      <g transform="translate(71.18875 258.141869) scale(0.08 -0.08)">
       <use xlink:href="#DejaVuSans-68"/>
       <use xlink:href="#DejaVuSans-6f" x="63.378906"/>
       <use xlink:href="#DejaVuSans-75" x="124.560547"/>
       <use xlink:href="#DejaVuSans-72" x="187.939453"/>
       <use xlink:href="#DejaVuSans-5f" x="229.052734"/>
       <use xlink:href="#DejaVuSans-32" x="279.052734"/>
      </g>
     </g>
    </g>
    <g id="ytick_6">
     <g id="line2d_15">
      <g>
       <use xlink:href="#m49bcdc3dd0" x="105.6025" y="244.843157" style="stroke: #000000; stroke-width: 0.8"/>
      </g>
     </g>
     <g id="text_16">
      <!-- hour_23 -->
      <g transform="translate(66.09875 247.882532) scale(0.08 -0.08)">
       <use xlink:href="#DejaVuSans-68"/>
       <use xlink:href="#DejaVuSans-6f" x="63.378906"/>
       <use xlink:href="#DejaVuSans-75" x="124.560547"/>
       <use xlink:href="#DejaVuSans-72" x="187.939453"/>
       <use xlink:href="#DejaVuSans-5f" x="229.052734"/>
       <use xlink:href="#DejaVuSans-32" x="279.052734"/>
       <use xlink:href="#DejaVuSans-33" x="342.675781"/>
      </g>
     </g>
    </g>
    <g id="ytick_7">
     <g id="line2d_16">
      <g>
       <use xlink:href="#m49bcdc3dd0" x="105.6025" y="234.583819" style="stroke: #000000; stroke-width: 0.8"/>
      </g>
     </g>
     <g id="text_17">
      <!-- hour_5 -->
      <g transform="translate(71.18875 237.623194) scale(0.08 -0.08)">
       <defs>
        <path id="DejaVuSans-35" d="M 691 4666 
L 3169 4666 
L 3169 4134 
L 1269 4134 
L 1269 2991 
Q 1406 3038 1543 3061 
Q 1681 3084 1819 3084 
Q 2600 3084 3056 2656 
Q 3513 2228 3513 1497 
Q 3513 744 3044 326 
Q 2575 -91 1722 -91 
Q 1428 -91 1123 -41 
Q 819 9 494 109 
L 494 744 
Q 775 591 1075 516 
Q 1375 441 1709 441 
Q 2250 441 2565 725 
Q 2881 1009 2881 1497 
Q 2881 1984 2565 2268 
Q 2250 2553 1709 2553 
Q 1456 2553 1204 2497 
Q 953 2441 691 2322 
L 691 4666 
z
" transform="scale(0.015625)"/>
       </defs>
       <use xlink:href="#DejaVuSans-68"/>
       <use xlink:href="#DejaVuSans-6f" x="63.378906"/>
       <use xlink:href="#DejaVuSans-75" x="124.560547"/>
       <use xlink:href="#DejaVuSans-72" x="187.939453"/>
       <use xlink:href="#DejaVuSans-5f" x="229.052734"/>
       <use xlink:href="#DejaVuSans-35" x="279.052734"/>
      </g>
     </g>
    </g>
    <g id="ytick_8">
     <g id="line2d_17">
      <g>
       <use xlink:href="#m49bcdc3dd0" x="105.6025" y="224.324482" style="stroke: #000000; stroke-width: 0.8"/>
      </g>
     </g>
     <g id="text_18">
      <!-- hour_22 -->
      <g transform="translate(66.09875 227.363857) scale(0.08 -0.08)">
       <use xlink:href="#DejaVuSans-68"/>
       <use xlink:href="#DejaVuSans-6f" x="63.378906"/>
       <use xlink:href="#DejaVuSans-75" x="124.560547"/>
       <use xlink:href="#DejaVuSans-72" x="187.939453"/>
       <use xlink:href="#DejaVuSans-5f" x="229.052734"/>
       <use xlink:href="#DejaVuSans-32" x="279.052734"/>
       <use xlink:href="#DejaVuSans-32" x="342.675781"/>
      </g>
     </g>
    </g>
    <g id="ytick_9">
     <g id="line2d_18">
      <g>
       <use xlink:href="#m49bcdc3dd0" x="105.6025" y="214.065144" style="stroke: #000000; stroke-width: 0.8"/>
      </g>
     </g>
     <g id="text_19">
      <!-- hour_21 -->
      <g transform="translate(66.09875 217.104519) scale(0.08 -0.08)">
       <use xlink:href="#DejaVuSans-68"/>
       <use xlink:href="#DejaVuSans-6f" x="63.378906"/>
       <use xlink:href="#DejaVuSans-75" x="124.560547"/>
       <use xlink:href="#DejaVuSans-72" x="187.939453"/>
       <use xlink:href="#DejaVuSans-5f" x="229.052734"/>
       <use xlink:href="#DejaVuSans-32" x="279.052734"/>
       <use xlink:href="#DejaVuSans-31" x="342.675781"/>
      </g>
     </g>
    </g>
    <g id="ytick_10">
     <g id="line2d_19">
      <g>
       <use xlink:href="#m49bcdc3dd0" x="105.6025" y="203.805806" style="stroke: #000000; stroke-width: 0.8"/>
      </g>
     </g>
     <g id="text_20">
      <!-- hour_20 -->
      <g transform="translate(66.09875 206.845181) scale(0.08 -0.08)">
       <use xlink:href="#DejaVuSans-68"/>
       <use xlink:href="#DejaVuSans-6f" x="63.378906"/>
       <use xlink:href="#DejaVuSans-75" x="124.560547"/>
       <use xlink:href="#DejaVuSans-72" x="187.939453"/>
       <use xlink:href="#DejaVuSans-5f" x="229.052734"/>
       <use xlink:href="#DejaVuSans-32" x="279.052734"/>
       <use xlink:href="#DejaVuSans-30" x="342.675781"/>
      </g>
     </g>
    </g>
    <g id="ytick_11">
     <g id="line2d_20">
      <g>
       <use xlink:href="#m49bcdc3dd0" x="105.6025" y="193.546469" style="stroke: #000000; stroke-width: 0.8"/>
      </g>
     </g>
     <g id="text_21">
      <!-- hour_19 -->
      <g transform="translate(66.09875 196.585844) scale(0.08 -0.08)">
       <defs>
        <path id="DejaVuSans-39" d="M 703 97 
L 703 672 
Q 941 559 1184 500 
Q 1428 441 1663 441 
Q 2288 441 2617 861 
Q 2947 1281 2994 2138 
Q 2813 1869 2534 1725 
Q 2256 1581 1919 1581 
Q 1219 1581 811 2004 
Q 403 2428 403 3163 
Q 403 3881 828 4315 
Q 1253 4750 1959 4750 
Q 2769 4750 3195 4129 
Q 3622 3509 3622 2328 
Q 3622 1225 3098 567 
Q 2575 -91 1691 -91 
Q 1453 -91 1209 -44 
Q 966 3 703 97 
z
M 1959 2075 
Q 2384 2075 2632 2365 
Q 2881 2656 2881 3163 
Q 2881 3666 2632 3958 
Q 2384 4250 1959 4250 
Q 1534 4250 1286 3958 
Q 1038 3666 1038 3163 
Q 1038 2656 1286 2365 
Q 1534 2075 1959 2075 
z
" transform="scale(0.015625)"/>
       </defs>
       <use xlink:href="#DejaVuSans-68"/>
       <use xlink:href="#DejaVuSans-6f" x="63.378906"/>
       <use xlink:href="#DejaVuSans-75" x="124.560547"/>
       <use xlink:href="#DejaVuSans-72" x="187.939453"/>
       <use xlink:href="#DejaVuSans-5f" x="229.052734"/>
       <use xlink:href="#DejaVuSans-31" x="279.052734"/>
       <use xlink:href="#DejaVuSans-39" x="342.675781"/>
      </g>
     </g>
    </g>
    <g id="ytick_12">
     <g id="line2d_21">
      <g>
       <use xlink:href="#m49bcdc3dd0" x="105.6025" y="183.287131" style="stroke: #000000; stroke-width: 0.8"/>
      </g>
     </g>
     <g id="text_22">
      <!-- hour_16 -->
      <g transform="translate(66.09875 186.326506) scale(0.08 -0.08)">
       <use xlink:href="#DejaVuSans-68"/>
       <use xlink:href="#DejaVuSans-6f" x="63.378906"/>
       <use xlink:href="#DejaVuSans-75" x="124.560547"/>
       <use xlink:href="#DejaVuSans-72" x="187.939453"/>
       <use xlink:href="#DejaVuSans-5f" x="229.052734"/>
       <use xlink:href="#DejaVuSans-31" x="279.052734"/>
       <use xlink:href="#DejaVuSans-36" x="342.675781"/>
      </g>
     </g>
    </g>
    <g id="ytick_13">
     <g id="line2d_22">
      <g>
       <use xlink:href="#m49bcdc3dd0" x="105.6025" y="173.027794" style="stroke: #000000; stroke-width: 0.8"/>
      </g>
     </g>
     <g id="text_23">
      <!-- hour_10 -->
      <g transform="translate(66.09875 176.067169) scale(0.08 -0.08)">
       <use xlink:href="#DejaVuSans-68"/>
       <use xlink:href="#DejaVuSans-6f" x="63.378906"/>
       <use xlink:href="#DejaVuSans-75" x="124.560547"/>
       <use xlink:href="#DejaVuSans-72" x="187.939453"/>
       <use xlink:href="#DejaVuSans-5f" x="229.052734"/>
       <use xlink:href="#DejaVuSans-31" x="279.052734"/>
       <use xlink:href="#DejaVuSans-30" x="342.675781"/>
      </g>
     </g>
    </g>
    <g id="ytick_14">
     <g id="line2d_23">
      <g>
       <use xlink:href="#m49bcdc3dd0" x="105.6025" y="162.768456" style="stroke: #000000; stroke-width: 0.8"/>
      </g>
     </g>
     <g id="text_24">
      <!-- hour_6 -->
      <g transform="translate(71.18875 165.807831) scale(0.08 -0.08)">
       <use xlink:href="#DejaVuSans-68"/>
       <use xlink:href="#DejaVuSans-6f" x="63.378906"/>
       <use xlink:href="#DejaVuSans-75" x="124.560547"/>
       <use xlink:href="#DejaVuSans-72" x="187.939453"/>
       <use xlink:href="#DejaVuSans-5f" x="229.052734"/>
       <use xlink:href="#DejaVuSans-36" x="279.052734"/>
      </g>
     </g>
    </g>
    <g id="ytick_15">
     <g id="line2d_24">
      <g>
       <use xlink:href="#m49bcdc3dd0" x="105.6025" y="152.509119" style="stroke: #000000; stroke-width: 0.8"/>
      </g>
     </g>
     <g id="text_25">
      <!-- weekday_Sunday -->
      <g transform="translate(28.93125 155.548494) scale(0.08 -0.08)">
       <defs>
        <path id="DejaVuSans-77" d="M 269 3500 
L 844 3500 
L 1563 769 
L 2278 3500 
L 2956 3500 
L 3675 769 
L 4391 3500 
L 4966 3500 
L 4050 0 
L 3372 0 
L 2619 2869 
L 1863 0 
L 1184 0 
L 269 3500 
z
" transform="scale(0.015625)"/>
        <path id="DejaVuSans-6b" d="M 581 4863 
L 1159 4863 
L 1159 1991 
L 2875 3500 
L 3609 3500 
L 1753 1863 
L 3688 0 
L 2938 0 
L 1159 1709 
L 1159 0 
L 581 0 
L 581 4863 
z
" transform="scale(0.015625)"/>
        <path id="DejaVuSans-64" d="M 2906 2969 
L 2906 4863 
L 3481 4863 
L 3481 0 
L 2906 0 
L 2906 525 
Q 2725 213 2448 61 
Q 2172 -91 1784 -91 
Q 1150 -91 751 415 
Q 353 922 353 1747 
Q 353 2572 751 3078 
Q 1150 3584 1784 3584 
Q 2172 3584 2448 3432 
Q 2725 3281 2906 2969 
z
M 947 1747 
Q 947 1113 1208 752 
Q 1469 391 1925 391 
Q 2381 391 2643 752 
Q 2906 1113 2906 1747 
Q 2906 2381 2643 2742 
Q 2381 3103 1925 3103 
Q 1469 3103 1208 2742 
Q 947 2381 947 1747 
z
" transform="scale(0.015625)"/>
        <path id="DejaVuSans-79" d="M 2059 -325 
Q 1816 -950 1584 -1140 
Q 1353 -1331 966 -1331 
L 506 -1331 
L 506 -850 
L 844 -850 
Q 1081 -850 1212 -737 
Q 1344 -625 1503 -206 
L 1606 56 
L 191 3500 
L 800 3500 
L 1894 763 
L 2988 3500 
L 3597 3500 
L 2059 -325 
z
" transform="scale(0.015625)"/>
        <path id="DejaVuSans-53" d="M 3425 4513 
L 3425 3897 
Q 3066 4069 2747 4153 
Q 2428 4238 2131 4238 
Q 1616 4238 1336 4038 
Q 1056 3838 1056 3469 
Q 1056 3159 1242 3001 
Q 1428 2844 1947 2747 
L 2328 2669 
Q 3034 2534 3370 2195 
Q 3706 1856 3706 1288 
Q 3706 609 3251 259 
Q 2797 -91 1919 -91 
Q 1588 -91 1214 -16 
Q 841 59 441 206 
L 441 856 
Q 825 641 1194 531 
Q 1563 422 1919 422 
Q 2459 422 2753 634 
Q 3047 847 3047 1241 
Q 3047 1584 2836 1778 
Q 2625 1972 2144 2069 
L 1759 2144 
Q 1053 2284 737 2584 
Q 422 2884 422 3419 
Q 422 4038 858 4394 
Q 1294 4750 2059 4750 
Q 2388 4750 2728 4690 
Q 3069 4631 3425 4513 
z
" transform="scale(0.015625)"/>
       </defs>
       <use xlink:href="#DejaVuSans-77"/>
       <use xlink:href="#DejaVuSans-65" x="81.787109"/>
       <use xlink:href="#DejaVuSans-65" x="143.310547"/>
       <use xlink:href="#DejaVuSans-6b" x="204.833984"/>
       <use xlink:href="#DejaVuSans-64" x="262.744141"/>
       <use xlink:href="#DejaVuSans-61" x="326.220703"/>
       <use xlink:href="#DejaVuSans-79" x="387.5"/>
       <use xlink:href="#DejaVuSans-5f" x="446.679688"/>
       <use xlink:href="#DejaVuSans-53" x="496.679688"/>
       <use xlink:href="#DejaVuSans-75" x="560.15625"/>
       <use xlink:href="#DejaVuSans-6e" x="623.535156"/>
       <use xlink:href="#DejaVuSans-64" x="686.914062"/>
       <use xlink:href="#DejaVuSans-61" x="750.390625"/>
       <use xlink:href="#DejaVuSans-79" x="811.669922"/>
      </g>
     </g>
    </g>
    <g id="ytick_16">
     <g id="line2d_25">
      <g>
       <use xlink:href="#m49bcdc3dd0" x="105.6025" y="142.249781" style="stroke: #000000; stroke-width: 0.8"/>
      </g>
     </g>
     <g id="text_26">
      <!-- hour_11 -->
      <g transform="translate(66.09875 145.289156) scale(0.08 -0.08)">
       <use xlink:href="#DejaVuSans-68"/>
       <use xlink:href="#DejaVuSans-6f" x="63.378906"/>
       <use xlink:href="#DejaVuSans-75" x="124.560547"/>
       <use xlink:href="#DejaVuSans-72" x="187.939453"/>
       <use xlink:href="#DejaVuSans-5f" x="229.052734"/>
       <use xlink:href="#DejaVuSans-31" x="279.052734"/>
       <use xlink:href="#DejaVuSans-31" x="342.675781"/>
      </g>
     </g>
    </g>
    <g id="ytick_17">
     <g id="line2d_26">
      <g>
       <use xlink:href="#m49bcdc3dd0" x="105.6025" y="131.990444" style="stroke: #000000; stroke-width: 0.8"/>
      </g>
     </g>
     <g id="text_27">
      <!-- hour_7 -->
      <g transform="translate(71.18875 135.029819) scale(0.08 -0.08)">
       <defs>
        <path id="DejaVuSans-37" d="M 525 4666 
L 3525 4666 
L 3525 4397 
L 1831 0 
L 1172 0 
L 2766 4134 
L 525 4134 
L 525 4666 
z
" transform="scale(0.015625)"/>
       </defs>
       <use xlink:href="#DejaVuSans-68"/>
       <use xlink:href="#DejaVuSans-6f" x="63.378906"/>
       <use xlink:href="#DejaVuSans-75" x="124.560547"/>
       <use xlink:href="#DejaVuSans-72" x="187.939453"/>
       <use xlink:href="#DejaVuSans-5f" x="229.052734"/>
       <use xlink:href="#DejaVuSans-37" x="279.052734"/>
      </g>
     </g>
    </g>
    <g id="ytick_18">
     <g id="line2d_27">
      <g>
       <use xlink:href="#m49bcdc3dd0" x="105.6025" y="121.731106" style="stroke: #000000; stroke-width: 0.8"/>
      </g>
     </g>
     <g id="text_28">
      <!-- hour_12 -->
      <g transform="translate(66.09875 124.770481) scale(0.08 -0.08)">
       <use xlink:href="#DejaVuSans-68"/>
       <use xlink:href="#DejaVuSans-6f" x="63.378906"/>
       <use xlink:href="#DejaVuSans-75" x="124.560547"/>
       <use xlink:href="#DejaVuSans-72" x="187.939453"/>
       <use xlink:href="#DejaVuSans-5f" x="229.052734"/>
       <use xlink:href="#DejaVuSans-31" x="279.052734"/>
       <use xlink:href="#DejaVuSans-32" x="342.675781"/>
      </g>
     </g>
    </g>
    <g id="ytick_19">
     <g id="line2d_28">
      <g>
       <use xlink:href="#m49bcdc3dd0" x="105.6025" y="111.471768" style="stroke: #000000; stroke-width: 0.8"/>
      </g>
     </g>
     <g id="text_29">
      <!-- hour_18 -->
      <g transform="translate(66.09875 114.511143) scale(0.08 -0.08)">
       <use xlink:href="#DejaVuSans-68"/>
       <use xlink:href="#DejaVuSans-6f" x="63.378906"/>
       <use xlink:href="#DejaVuSans-75" x="124.560547"/>
       <use xlink:href="#DejaVuSans-72" x="187.939453"/>
       <use xlink:href="#DejaVuSans-5f" x="229.052734"/>
       <use xlink:href="#DejaVuSans-31" x="279.052734"/>
       <use xlink:href="#DejaVuSans-38" x="342.675781"/>
      </g>
     </g>
    </g>
    <g id="ytick_20">
     <g id="line2d_29">
      <g>
       <use xlink:href="#m49bcdc3dd0" x="105.6025" y="101.212431" style="stroke: #000000; stroke-width: 0.8"/>
      </g>
     </g>
     <g id="text_30">
      <!-- hour_15 -->
      <g transform="translate(66.09875 104.251806) scale(0.08 -0.08)">
       <use xlink:href="#DejaVuSans-68"/>
       <use xlink:href="#DejaVuSans-6f" x="63.378906"/>
       <use xlink:href="#DejaVuSans-75" x="124.560547"/>
       <use xlink:href="#DejaVuSans-72" x="187.939453"/>
       <use xlink:href="#DejaVuSans-5f" x="229.052734"/>
       <use xlink:href="#DejaVuSans-31" x="279.052734"/>
       <use xlink:href="#DejaVuSans-35" x="342.675781"/>
      </g>
     </g>
    </g>
    <g id="ytick_21">
     <g id="line2d_30">
      <g>
       <use xlink:href="#m49bcdc3dd0" x="105.6025" y="90.953093" style="stroke: #000000; stroke-width: 0.8"/>
      </g>
     </g>
     <g id="text_31">
      <!-- hour_14 -->
      <g transform="translate(66.09875 93.992468) scale(0.08 -0.08)">
       <use xlink:href="#DejaVuSans-68"/>
       <use xlink:href="#DejaVuSans-6f" x="63.378906"/>
       <use xlink:href="#DejaVuSans-75" x="124.560547"/>
       <use xlink:href="#DejaVuSans-72" x="187.939453"/>
       <use xlink:href="#DejaVuSans-5f" x="229.052734"/>
       <use xlink:href="#DejaVuSans-31" x="279.052734"/>
       <use xlink:href="#DejaVuSans-34" x="342.675781"/>
      </g>
     </g>
    </g>
    <g id="ytick_22">
     <g id="line2d_31">
      <g>
       <use xlink:href="#m49bcdc3dd0" x="105.6025" y="80.693756" style="stroke: #000000; stroke-width: 0.8"/>
      </g>
     </g>
     <g id="text_32">
      <!-- hour_17 -->
      <g transform="translate(66.09875 83.733131) scale(0.08 -0.08)">
       <use xlink:href="#DejaVuSans-68"/>
       <use xlink:href="#DejaVuSans-6f" x="63.378906"/>
       <use xlink:href="#DejaVuSans-75" x="124.560547"/>
       <use xlink:href="#DejaVuSans-72" x="187.939453"/>
       <use xlink:href="#DejaVuSans-5f" x="229.052734"/>
       <use xlink:href="#DejaVuSans-31" x="279.052734"/>
       <use xlink:href="#DejaVuSans-37" x="342.675781"/>
      </g>
     </g>
    </g>
    <g id="ytick_23">
     <g id="line2d_32">
      <g>
       <use xlink:href="#m49bcdc3dd0" x="105.6025" y="70.434418" style="stroke: #000000; stroke-width: 0.8"/>
      </g>
     </g>
     <g id="text_33">
      <!-- hour_9 -->
      <g transform="translate(71.18875 73.473793) scale(0.08 -0.08)">
       <use xlink:href="#DejaVuSans-68"/>
       <use xlink:href="#DejaVuSans-6f" x="63.378906"/>
       <use xlink:href="#DejaVuSans-75" x="124.560547"/>
       <use xlink:href="#DejaVuSans-72" x="187.939453"/>
       <use xlink:href="#DejaVuSans-5f" x="229.052734"/>
       <use xlink:href="#DejaVuSans-39" x="279.052734"/>
      </g>
     </g>
    </g>
    <g id="ytick_24">
     <g id="line2d_33">
      <g>
       <use xlink:href="#m49bcdc3dd0" x="105.6025" y="60.175081" style="stroke: #000000; stroke-width: 0.8"/>
      </g>
     </g>
     <g id="text_34">
      <!-- weekday_Saturday -->
      <g transform="translate(22.81375 63.214456) scale(0.08 -0.08)">
       <use xlink:href="#DejaVuSans-77"/>
       <use xlink:href="#DejaVuSans-65" x="81.787109"/>
       <use xlink:href="#DejaVuSans-65" x="143.310547"/>
       <use xlink:href="#DejaVuSans-6b" x="204.833984"/>
       <use xlink:href="#DejaVuSans-64" x="262.744141"/>
       <use xlink:href="#DejaVuSans-61" x="326.220703"/>
       <use xlink:href="#DejaVuSans-79" x="387.5"/>
       <use xlink:href="#DejaVuSans-5f" x="446.679688"/>
       <use xlink:href="#DejaVuSans-53" x="496.679688"/>
       <use xlink:href="#DejaVuSans-61" x="560.15625"/>
       <use xlink:href="#DejaVuSans-74" x="621.435547"/>
       <use xlink:href="#DejaVuSans-75" x="660.644531"/>
       <use xlink:href="#DejaVuSans-72" x="724.023438"/>
       <use xlink:href="#DejaVuSans-64" x="763.386719"/>
       <use xlink:href="#DejaVuSans-61" x="826.863281"/>
       <use xlink:href="#DejaVuSans-79" x="888.142578"/>
      </g>
     </g>
    </g>
    <g id="ytick_25">
     <g id="line2d_34">
      <g>
       <use xlink:href="#m49bcdc3dd0" x="105.6025" y="49.915743" style="stroke: #000000; stroke-width: 0.8"/>
      </g>
     </g>
     <g id="text_35">
      <!-- hour_13 -->
      <g transform="translate(66.09875 52.955118) scale(0.08 -0.08)">
       <use xlink:href="#DejaVuSans-68"/>
       <use xlink:href="#DejaVuSans-6f" x="63.378906"/>
       <use xlink:href="#DejaVuSans-75" x="124.560547"/>
       <use xlink:href="#DejaVuSans-72" x="187.939453"/>
       <use xlink:href="#DejaVuSans-5f" x="229.052734"/>
       <use xlink:href="#DejaVuSans-31" x="279.052734"/>
       <use xlink:href="#DejaVuSans-33" x="342.675781"/>
      </g>
     </g>
    </g>
    <g id="ytick_26">
     <g id="line2d_35">
      <g>
       <use xlink:href="#m49bcdc3dd0" x="105.6025" y="39.656405" style="stroke: #000000; stroke-width: 0.8"/>
      </g>
     </g>
     <g id="text_36">
      <!-- hour_8 -->
      <g transform="translate(71.18875 42.69578) scale(0.08 -0.08)">
       <use xlink:href="#DejaVuSans-68"/>
       <use xlink:href="#DejaVuSans-6f" x="63.378906"/>
       <use xlink:href="#DejaVuSans-75" x="124.560547"/>
       <use xlink:href="#DejaVuSans-72" x="187.939453"/>
       <use xlink:href="#DejaVuSans-5f" x="229.052734"/>
       <use xlink:href="#DejaVuSans-38" x="279.052734"/>
      </g>
     </g>
    </g>
    <g id="text_37">
     <!-- Input Feature -->
     <g transform="translate(16.318125 208.009062) rotate(-90) scale(0.12 -0.12)">
      <defs>
       <path id="DejaVuSans-20" transform="scale(0.015625)"/>
       <path id="DejaVuSans-46" d="M 628 4666 
L 3309 4666 
L 3309 4134 
L 1259 4134 
L 1259 2759 
L 3109 2759 
L 3109 2228 
L 1259 2228 
L 1259 0 
L 628 0 
L 628 4666 
z
" transform="scale(0.015625)"/>
      </defs>
      <use xlink:href="#DejaVuSans-49"/>
      <use xlink:href="#DejaVuSans-6e" x="29.492188"/>
      <use xlink:href="#DejaVuSans-70" x="92.871094"/>
      <use xlink:href="#DejaVuSans-75" x="156.347656"/>
      <use xlink:href="#DejaVuSans-74" x="219.726562"/>
      <use xlink:href="#DejaVuSans-20" x="258.935547"/>
      <use xlink:href="#DejaVuSans-46" x="290.722656"/>
      <use xlink:href="#DejaVuSans-65" x="342.742188"/>
      <use xlink:href="#DejaVuSans-61" x="404.265625"/>
      <use xlink:href="#DejaVuSans-74" x="465.544922"/>
      <use xlink:href="#DejaVuSans-75" x="504.753906"/>
      <use xlink:href="#DejaVuSans-72" x="568.132812"/>
      <use xlink:href="#DejaVuSans-65" x="606.996094"/>
     </g>
    </g>
   </g>
   <g id="patch_29">
    <path d="M 105.6025 313.478125 
L 105.6025 22.318125 
" style="fill: none; stroke: #000000; stroke-width: 0.8; stroke-linejoin: miter; stroke-linecap: square"/>
   </g>
   <g id="patch_30">
    <path d="M 703.6325 313.478125 
L 703.6325 22.318125 
" style="fill: none; stroke: #000000; stroke-width: 0.8; stroke-linejoin: miter; stroke-linecap: square"/>
   </g>
   <g id="patch_31">
    <path d="M 105.6025 313.478125 
L 703.6325 313.478125 
" style="fill: none; stroke: #000000; stroke-width: 0.8; stroke-linejoin: miter; stroke-linecap: square"/>
   </g>
   <g id="patch_32">
    <path d="M 105.6025 22.318125 
L 703.6325 22.318125 
" style="fill: none; stroke: #000000; stroke-width: 0.8; stroke-linejoin: miter; stroke-linecap: square"/>
   </g>
   <g id="text_38">
    <!-- Which features are the most important for predicting traffic volume? -->
    <g transform="translate(198.398438 16.318125) scale(0.12 -0.12)">
     <defs>
      <path id="DejaVuSans-57" d="M 213 4666 
L 850 4666 
L 1831 722 
L 2809 4666 
L 3519 4666 
L 4500 722 
L 5478 4666 
L 6119 4666 
L 4947 0 
L 4153 0 
L 3169 4050 
L 2175 0 
L 1381 0 
L 213 4666 
z
" transform="scale(0.015625)"/>
      <path id="DejaVuSans-69" d="M 603 3500 
L 1178 3500 
L 1178 0 
L 603 0 
L 603 3500 
z
M 603 4863 
L 1178 4863 
L 1178 4134 
L 603 4134 
L 603 4863 
z
" transform="scale(0.015625)"/>
      <path id="DejaVuSans-66" d="M 2375 4863 
L 2375 4384 
L 1825 4384 
Q 1516 4384 1395 4259 
Q 1275 4134 1275 3809 
L 1275 3500 
L 2222 3500 
L 2222 3053 
L 1275 3053 
L 1275 0 
L 697 0 
L 697 3053 
L 147 3053 
L 147 3500 
L 697 3500 
L 697 3744 
Q 697 4328 969 4595 
Q 1241 4863 1831 4863 
L 2375 4863 
z
" transform="scale(0.015625)"/>
      <path id="DejaVuSans-73" d="M 2834 3397 
L 2834 2853 
Q 2591 2978 2328 3040 
Q 2066 3103 1784 3103 
Q 1356 3103 1142 2972 
Q 928 2841 928 2578 
Q 928 2378 1081 2264 
Q 1234 2150 1697 2047 
L 1894 2003 
Q 2506 1872 2764 1633 
Q 3022 1394 3022 966 
Q 3022 478 2636 193 
Q 2250 -91 1575 -91 
Q 1294 -91 989 -36 
Q 684 19 347 128 
L 347 722 
Q 666 556 975 473 
Q 1284 391 1588 391 
Q 1994 391 2212 530 
Q 2431 669 2431 922 
Q 2431 1156 2273 1281 
Q 2116 1406 1581 1522 
L 1381 1569 
Q 847 1681 609 1914 
Q 372 2147 372 2553 
Q 372 3047 722 3315 
Q 1072 3584 1716 3584 
Q 2034 3584 2315 3537 
Q 2597 3491 2834 3397 
z
" transform="scale(0.015625)"/>
      <path id="DejaVuSans-67" d="M 2906 1791 
Q 2906 2416 2648 2759 
Q 2391 3103 1925 3103 
Q 1463 3103 1205 2759 
Q 947 2416 947 1791 
Q 947 1169 1205 825 
Q 1463 481 1925 481 
Q 2391 481 2648 825 
Q 2906 1169 2906 1791 
z
M 3481 434 
Q 3481 -459 3084 -895 
Q 2688 -1331 1869 -1331 
Q 1566 -1331 1297 -1286 
Q 1028 -1241 775 -1147 
L 775 -588 
Q 1028 -725 1275 -790 
Q 1522 -856 1778 -856 
Q 2344 -856 2625 -561 
Q 2906 -266 2906 331 
L 2906 616 
Q 2728 306 2450 153 
Q 2172 0 1784 0 
Q 1141 0 747 490 
Q 353 981 353 1791 
Q 353 2603 747 3093 
Q 1141 3584 1784 3584 
Q 2172 3584 2450 3431 
Q 2728 3278 2906 2969 
L 2906 3500 
L 3481 3500 
L 3481 434 
z
" transform="scale(0.015625)"/>
      <path id="DejaVuSans-76" d="M 191 3500 
L 800 3500 
L 1894 563 
L 2988 3500 
L 3597 3500 
L 2284 0 
L 1503 0 
L 191 3500 
z
" transform="scale(0.015625)"/>
      <path id="DejaVuSans-6c" d="M 603 4863 
L 1178 4863 
L 1178 0 
L 603 0 
L 603 4863 
z
" transform="scale(0.015625)"/>
      <path id="DejaVuSans-3f" d="M 1222 794 
L 1856 794 
L 1856 0 
L 1222 0 
L 1222 794 
z
M 1838 1253 
L 1241 1253 
L 1241 1734 
Q 1241 2050 1328 2253 
Q 1416 2456 1697 2725 
L 1978 3003 
Q 2156 3169 2236 3316 
Q 2316 3463 2316 3616 
Q 2316 3894 2111 4066 
Q 1906 4238 1569 4238 
Q 1322 4238 1042 4128 
Q 763 4019 459 3809 
L 459 4397 
Q 753 4575 1054 4662 
Q 1356 4750 1678 4750 
Q 2253 4750 2601 4447 
Q 2950 4144 2950 3647 
Q 2950 3409 2837 3195 
Q 2725 2981 2444 2713 
L 2169 2444 
Q 2022 2297 1961 2214 
Q 1900 2131 1875 2053 
Q 1856 1988 1847 1894 
Q 1838 1800 1838 1638 
L 1838 1253 
z
" transform="scale(0.015625)"/>
     </defs>
     <use xlink:href="#DejaVuSans-57"/>
     <use xlink:href="#DejaVuSans-68" x="98.876953"/>
     <use xlink:href="#DejaVuSans-69" x="162.255859"/>
     <use xlink:href="#DejaVuSans-63" x="190.039062"/>
     <use xlink:href="#DejaVuSans-68" x="245.019531"/>
     <use xlink:href="#DejaVuSans-20" x="308.398438"/>
     <use xlink:href="#DejaVuSans-66" x="340.185547"/>
     <use xlink:href="#DejaVuSans-65" x="375.390625"/>
     <use xlink:href="#DejaVuSans-61" x="436.914062"/>
     <use xlink:href="#DejaVuSans-74" x="498.193359"/>
     <use xlink:href="#DejaVuSans-75" x="537.402344"/>
     <use xlink:href="#DejaVuSans-72" x="600.78125"/>
     <use xlink:href="#DejaVuSans-65" x="639.644531"/>
     <use xlink:href="#DejaVuSans-73" x="701.167969"/>
     <use xlink:href="#DejaVuSans-20" x="753.267578"/>
     <use xlink:href="#DejaVuSans-61" x="785.054688"/>
     <use xlink:href="#DejaVuSans-72" x="846.333984"/>
     <use xlink:href="#DejaVuSans-65" x="885.197266"/>
     <use xlink:href="#DejaVuSans-20" x="946.720703"/>
     <use xlink:href="#DejaVuSans-74" x="978.507812"/>
     <use xlink:href="#DejaVuSans-68" x="1017.716797"/>
     <use xlink:href="#DejaVuSans-65" x="1081.095703"/>
     <use xlink:href="#DejaVuSans-20" x="1142.619141"/>
     <use xlink:href="#DejaVuSans-6d" x="1174.40625"/>
     <use xlink:href="#DejaVuSans-6f" x="1271.818359"/>
     <use xlink:href="#DejaVuSans-73" x="1333"/>
     <use xlink:href="#DejaVuSans-74" x="1385.099609"/>
     <use xlink:href="#DejaVuSans-20" x="1424.308594"/>
     <use xlink:href="#DejaVuSans-69" x="1456.095703"/>
     <use xlink:href="#DejaVuSans-6d" x="1483.878906"/>
     <use xlink:href="#DejaVuSans-70" x="1581.291016"/>
     <use xlink:href="#DejaVuSans-6f" x="1644.767578"/>
     <use xlink:href="#DejaVuSans-72" x="1705.949219"/>
     <use xlink:href="#DejaVuSans-74" x="1747.0625"/>
     <use xlink:href="#DejaVuSans-61" x="1786.271484"/>
     <use xlink:href="#DejaVuSans-6e" x="1847.550781"/>
     <use xlink:href="#DejaVuSans-74" x="1910.929688"/>
     <use xlink:href="#DejaVuSans-20" x="1950.138672"/>
     <use xlink:href="#DejaVuSans-66" x="1981.925781"/>
     <use xlink:href="#DejaVuSans-6f" x="2017.130859"/>
     <use xlink:href="#DejaVuSans-72" x="2078.3125"/>
     <use xlink:href="#DejaVuSans-20" x="2119.425781"/>
     <use xlink:href="#DejaVuSans-70" x="2151.212891"/>
     <use xlink:href="#DejaVuSans-72" x="2214.689453"/>
     <use xlink:href="#DejaVuSans-65" x="2253.552734"/>
     <use xlink:href="#DejaVuSans-64" x="2315.076172"/>
     <use xlink:href="#DejaVuSans-69" x="2378.552734"/>
     <use xlink:href="#DejaVuSans-63" x="2406.335938"/>
     <use xlink:href="#DejaVuSans-74" x="2461.316406"/>
     <use xlink:href="#DejaVuSans-69" x="2500.525391"/>
     <use xlink:href="#DejaVuSans-6e" x="2528.308594"/>
     <use xlink:href="#DejaVuSans-67" x="2591.6875"/>
     <use xlink:href="#DejaVuSans-20" x="2655.164062"/>
     <use xlink:href="#DejaVuSans-74" x="2686.951172"/>
     <use xlink:href="#DejaVuSans-72" x="2726.160156"/>
     <use xlink:href="#DejaVuSans-61" x="2767.273438"/>
     <use xlink:href="#DejaVuSans-66" x="2828.552734"/>
     <use xlink:href="#DejaVuSans-66" x="2863.757812"/>
     <use xlink:href="#DejaVuSans-69" x="2898.962891"/>
     <use xlink:href="#DejaVuSans-63" x="2926.746094"/>
     <use xlink:href="#DejaVuSans-20" x="2981.726562"/>
     <use xlink:href="#DejaVuSans-76" x="3013.513672"/>
     <use xlink:href="#DejaVuSans-6f" x="3072.693359"/>
     <use xlink:href="#DejaVuSans-6c" x="3133.875"/>
     <use xlink:href="#DejaVuSans-75" x="3161.658203"/>
     <use xlink:href="#DejaVuSans-6d" x="3225.037109"/>
     <use xlink:href="#DejaVuSans-65" x="3322.449219"/>
     <use xlink:href="#DejaVuSans-3f" x="3383.972656"/>
    </g>
   </g>
  </g>
 </g>
 <defs>
  <clipPath id="p589c0ce26c">
   <rect x="105.6025" y="22.318125" width="598.03" height="291.16"/>
  </clipPath>
 </defs>
</svg>
